<svg viewBox="0 0 700 250" xmlns="http://www.w3.org/2000/svg">
  <!-- Title -->
  <text x="350" y="30" text-anchor="middle" font-size="20" font-weight="bold" fill="#2C5F7C">Sequential Search - Mencari Nilai 40</text>
  
  <!-- Array boxes -->
  <rect x="50" y="70" width="80" height="50" fill="#E8F4F8" stroke="#2C5F7C" stroke-width="2"/>
  <rect x="140" y="70" width="80" height="50" fill="#E8F4F8" stroke="#2C5F7C" stroke-width="2"/>
  <rect x="230" y="70" width="80" height="50" fill="#E8F4F8" stroke="#2C5F7C" stroke-width="2"/>
  <rect x="320" y="70" width="80" height="50" fill="#90EE90" stroke="#2C5F7C" stroke-width="3"/>
  <rect x="410" y="70" width="80" height="50" fill="#E8F4F8" stroke="#2C5F7C" stroke-width="2"/>
  <rect x="500" y="70" width="80" height="50" fill="#E8F4F8" stroke="#2C5F7C" stroke-width="2"/>
  <rect x="590" y="70" width="80" height="50" fill="#E8F4F8" stroke="#2C5F7C" stroke-width="2"/>
  
  <!-- Values -->
  <text x="90" y="100" text-anchor="middle" font-size="20" font-weight="bold" fill="#2C5F7C">10</text>
  <text x="180" y="100" text-anchor="middle" font-size="20" font-weight="bold" fill="#2C5F7C">25</text>
  <text x="270" y="100" text-anchor="middle" font-size="20" font-weight="bold" fill="#2C5F7C">33</text>
  <text x="360" y="100" text-anchor="middle" font-size="20" font-weight="bold" fill="#2C5F7C">40</text>
  <text x="450" y="100" text-anchor="middle" font-size="20" font-weight="bold" fill="#2C5F7C">55</text>
  <text x="540" y="100" text-anchor="middle" font-size="20" font-weight="bold" fill="#2C5F7C">67</text>
  <text x="630" y="100" text-anchor="middle" font-size="20" font-weight="bold" fill="#2C5F7C">78</text>
  
  <!-- Index labels -->
  <text x="90" y="140" text-anchor="middle" font-size="14" fill="#555">0</text>
  <text x="180" y="140" text-anchor="middle" font-size="14" fill="#555">1</text>
  <text x="270" y="140" text-anchor="middle" font-size="14" fill="#555">2</text>
  <text x="360" y="140" text-anchor="middle" font-size="14" fill="#555">3</text>
  <text x="450" y="140" text-anchor="middle" font-size="14" fill="#555">4</text>
  <text x="540" y="140" text-anchor="middle" font-size="14" fill="#555">5</text>
  <text x="630" y="140" text-anchor="middle" font-size="14" fill="#555">6</text>
  
  <!-- Search arrows -->
  <path d="M 90 160 L 90 180" stroke="#FF6B6B" stroke-width="2" fill="none" marker-end="url(#arrow-red)"/>
  <path d="M 180 160 L 180 180" stroke="#FF6B6B" stroke-width="2" fill="none" marker-end="url(#arrow-red)"/>
  <path d="M 270 160 L 270 180" stroke="#FF6B6B" stroke-width="2" fill="none" marker-end="url(#arrow-red)"/>
  <path d="M 360 160 L 360 180" stroke="#00CC00" stroke-width="3" fill="none" marker-end="url(#arrow-green)"/>
  
  <!-- Labels -->
  <text x="90" y="205" text-anchor="middle" font-size="12" fill="#FF6B6B">Cek</text>
  <text x="180" y="205" text-anchor="middle" font-size="12" fill="#FF6B6B">Cek</text>
  <text x="270" y="205" text-anchor="middle" font-size="12" fill="#FF6B6B">Cek</text>
  <text x="360" y="205" text-anchor="middle" font-size="12" fill="#00CC00" font-weight="bold">Ketemu!</text>
  
  <!-- Legend -->
  <text x="50" y="235" font-size="14" fill="#555">✓ Nilai ditemukan pada indeks 3 setelah 4 kali pemeriksaan</text>
  
  <!-- Arrow markers -->
  <defs>
    <marker id="arrow-red" markerWidth="10" markerHeight="10" refX="9" refY="3" orient="auto">
      <polygon points="0 0, 10 3, 0 6" fill="#FF6B6B" />
    </marker>
    <marker id="arrow-green" markerWidth="10" markerHeight="10" refX="9" refY="3" orient="auto">
      <polygon points="0 0, 10 3, 0 6" fill="#00CC00" />
    </marker>
  </defs>
</svg>
