
<svg viewBox="0 0 800 500" xmlns="http://www.w3.org/2000/svg">
  <!-- Class (Blueprint) -->
  <rect x="50" y="50" width="250" height="200" fill="#e1f5fe" stroke="#0277bd" stroke-width="3"/>
  <text x="175" y="80" text-anchor="middle" font-size="18" font-weight="bold" fill="#0277bd">Class Mahasiswa</text>
  <text x="175" y="100" text-anchor="middle" font-size="14" fill="#666">(Blueprint)</text>
  <line x1="50" y1="110" x2="300" y2="110" stroke="#0277bd" stroke-width="2"/>
  
  <text x="65" y="135" font-size="13" font-weight="bold">Attributes:</text>
  <text x="75" y="155" font-size="12">- nama</text>
  <text x="75" y="170" font-size="12">- nim</text>
  <text x="75" y="185" font-size="12">- jurusan</text>
  <text x="75" y="200" font-size="12">- ipk</text>
  
  <text x="65" y="225" font-size="13" font-weight="bold">Methods:</text>
  <text x="75" y="240" font-size="12">+ setData()</text>
  
  <!-- Arrow -->
  <path d="M 175 250 L 175 280" stroke="#666" stroke-width="2" marker-end="url(#arrow1)"/>
  <text x="190" y="270" font-size="13" fill="#666">creates</text>
  
  <!-- Object 1 -->
  <rect x="50" y="300" width="250" height="180" fill="#fff3e0" stroke="#e65100" stroke-width="2"/>
  <text x="175" y="330" text-anchor="middle" font-size="16" font-weight="bold" fill="#e65100">Object: mhs1</text>
  <line x1="50" y1="340" x2="300" y2="340" stroke="#e65100" stroke-width="2"/>
  
  <text x="65" y="365" font-size="12" font-weight="bold">Data:</text>
  <text x="75" y="385" font-size="12">nama = "Budi Santoso"</text>
  <text x="75" y="400" font-size="12">nim = "2101001"</text>
  <text x="75" y="415" font-size="12">jurusan = "Informatika"</text>
  <text x="75" y="430" font-size="12">ipk = 3.75</text>
  <text x="75" y="455" font-size="12" font-style="italic">Predikat: Cum Laude</text>
  
  <!-- Object 2 -->
  <rect x="350" y="300" width="250" height="180" fill="#e8f5e9" stroke="#2e7d32" stroke-width="2"/>
  <text x="475" y="330" text-anchor="middle" font-size="16" font-weight="bold" fill="#2e7d32">Object: mhs2</text>
  <line x1="350" y1="340" x2="600" y2="340" stroke="#2e7d32" stroke-width="2"/>
  
  <text x="365" y="365" font-size="12" font-weight="bold">Data:</text>
  <text x="375" y="385" font-size="12">nama = "Ani Lestari"</text>
  <text x="375" y="400" font-size="12">nim = "2101002"</text>
  <text x="375" y="415" font-size="12">jurusan = "Sistem Informasi"</text>
  <text x="375" y="430" font-size="12">ipk = 3.25</text>
  <text x="375" y="455" font-size="12" font-style="italic">Predikat: Sangat Memuaskan</text>
  
  <!-- Arrow from class to object 2 -->
  <path d="M 300 150 L 320 150 L 320 350 L 350 350" stroke="#666" stroke-width="2" marker-end="url(#arrow1)" stroke-dasharray="5,5"/>
  
  <defs>
    <marker id="arrow1" markerWidth="10" markerHeight="10" refX="9" refY="3" orient="auto" markerUnits="strokeWidth">
      <path d="M0,0 L0,6 L9,3 z" fill="#666"/>
    </marker>
  </defs>
</svg>
