<svg viewBox="0 0 800 450" xmlns="http://www.w3.org/2000/svg">
  <!-- Main box -->
  <rect x="200" y="50" width="400" height="350" fill="#f5f5f5" stroke="#333" stroke-width="2"/>
  
  <!-- Title -->
  <text x="400" y="80" text-anchor="middle" font-size="18" font-weight="bold">Class Mahasiswa</text>
  <line x1="200" y1="90" x2="600" y2="90" stroke="#333" stroke-width="2"/>
  
  <!-- Private section -->
  <rect x="220" y="110" width="360" height="140" fill="#ffebee" stroke="#c62828" stroke-width="2"/>
  <text x="230" y="135" font-size="14" font-weight="bold" fill="#c62828">Private (Hidden)</text>
  <line x1="220" y1="145" x2="580" y2="145" stroke="#c62828" stroke-width="1"/>
  
  <text x="240" y="170" font-size="12">- string nama</text>
  <text x="240" y="190" font-size="12">- string nim</text>
  <text x="240" y="210" font-size="12">- string jurusan</text>
  <text x="240" y="230" font-size="12">- float ipk</text>
  
  <!-- Public section -->
  <rect x="220" y="270" width="360" height="110" fill="#e8f5e9" stroke="#2e7d32" stroke-width="2"/>
  <text x="230" y="295" font-size="14" font-weight="bold" fill="#2e7d32">Public (Interface)</text>
  <line x1="220" y1="305" x2="580" y2="305" stroke="#2e7d32" stroke-width="1"/>
  
  <text x="240" y="325" font-size="12">+ getNama(), setNama()</text>
  <text x="240" y="345" font-size="12">+ getNim(), setNim()</text>
  <text x="240" y="365" font-size="12">+ getIPK(), setIPK()</text>
  
  <!-- User/Client -->
  <ellipse cx="100" cy="225" rx="60" ry="40" fill="#fff9c4" stroke="#f57f17" stroke-width="2"/>
  <text x="100" y="220" text-anchor="middle" font-size="13" font-weight="bold">User</text>
  <text x="100" y="235" text-anchor="middle" font-size="11">Code</text>
  
  <!-- Arrows -->
  <path d="M 160 225 L 220 315" stroke="#2e7d32" stroke-width="2" marker-end="url(#arrowgreen)"/>
  <text x="180" y="280" font-size="11" fill="#2e7d32">Access via</text>
  <text x="180" y="293" font-size="11" fill="#2e7d32">public methods</text>
  
  <path d="M 160 200 L 220 180" stroke="#c62828" stroke-width="2" stroke-dasharray="5,5"/>
  <line x1="210" y1="175" x2="230" y2="185" stroke="#c62828" stroke-width="2"/>
  <line x1="210" y1="185" x2="230" y2="175" stroke="#c62828" stroke-width="2"/>
  <text x="165" y="175" font-size="11" fill="#c62828">No direct</text>
  <text x="165" y="188" font-size="11" fill="#c62828">access!</text>
  
  <defs>
    <marker id="arrowgreen" markerWidth="10" markerHeight="10" refX="9" refY="3" orient="auto" markerUnits="strokeWidth">
      <path d="M0,0 L0,6 L9,3 z" fill="#2e7d32"/>
    </marker>
  </defs>
</svg>
