<svg viewBox="0 0 800 500" xmlns="http://www.w3.org/2000/svg">
  <!-- Person (Base class) -->
  <rect x="300" y="50" width="200" height="100" fill="#e3f2fd" stroke="#1976d2" stroke-width="2"/>
  <text x="400" y="80" text-anchor="middle" font-size="16" font-weight="bold" fill="#1976d2">Person</text>
  <line x1="300" y1="90" x2="500" y2="90" stroke="#1976d2" stroke-width="1"/>
  <text x="310" y="110" font-size="12">- nama: string</text>
  <text x="310" y="130" font-size="12">- umur: int</text>
  
  <!-- Mahasiswa (Derived class) -->
  <rect x="300" y="200" width="200" height="120" fill="#fff3e0" stroke="#e65100" stroke-width="2"/>
  <text x="400" y="230" text-anchor="middle" font-size="16" font-weight="bold" fill="#e65100">Mahasiswa</text>
  <line x1="300" y1="240" x2="500" y2="240" stroke="#e65100" stroke-width="1"/>
  <text x="310" y="260" font-size="12">- nim: string</text>
  <text x="310" y="280" font-size="12">- jurusan: string</text>
  <text x="310" y="300" font-size="12">+ hitungPredikat()</text>
  
  <!-- Inheritance arrow -->
  <path d="M 400 150 L 400 200" stroke="#333" stroke-width="2" fill="none"/>
  <path d="M 385 190 L 400 200 L 415 190" fill="#333"/>
  
  <!-- Labels -->
  <text x="425" y="180" font-size="12" fill="#333">inherits from</text>
  
  <!-- Mahasiswa instances -->
  <rect x="50" y="370" width="180" height="100" fill="#f1f8e9" stroke="#558b2f" stroke-width="2"/>
  <text x="140" y="395" text-anchor="middle" font-size="13" font-weight="bold">mhs1: Mahasiswa</text>
  <text x="60" y="415" font-size="11">nama = "Budi"</text>
  <text x="60" y="430" font-size="11">umur = 20</text>
  <text x="60" y="445" font-size="11">nim = "2101001"</text>
  <text x="60" y="460" font-size="11">jurusan = "Informatika"</text>
  
  <rect x="310" y="370" width="180" height="100" fill="#f1f8e9" stroke="#558b2f" stroke-width="2"/>
  <text x="400" y="395" text-anchor="middle" font-size="13" font-weight="bold">mhs2: Mahasiswa</text>
  <text x="320" y="415" font-size="11">nama = "Ani"</text>
  <text x="320" y="430" font-size="11">umur = 19</text>
  <text x="320" y="445" font-size="11">nim = "2101002"</text>
  <text x="320" y="460" font-size="11">jurusan = "SI"</text>
  
  <!-- Instance arrows -->
  <path d="M 140 320 L 140 370" stroke="#558b2f" stroke-width="1.5" stroke-dasharray="3,3" marker-end="url(#arrowinst)"/>
  <path d="M 400 320 L 400 370" stroke="#558b2f" stroke-width="1.5" stroke-dasharray="3,3" marker-end="url(#arrowinst)"/>
  
  <text x="150" y="350" font-size="11" fill="#558b2f">instance of</text>
  <text x="410" y="350" font-size="11" fill="#558b2f">instance of</text>
  
  <defs>
    <marker id="arrowinst" markerWidth="8" markerHeight="8" refX="7" refY="3" orient="auto" markerUnits="strokeWidth">
      <path d="M0,0 L0,6 L8,3 z" fill="#558b2f"/>
    </marker>
  </defs>
</svg>
