
<svg viewBox="0 0 800 400" xmlns="http://www.w3.org/2000/svg">
  <!-- Prosedural Programming -->
  <rect x="50" y="50" width="300" height="300" fill="#e3f2fd" stroke="#1976d2" stroke-width="2"/>
  <text x="200" y="75" text-anchor="middle" font-size="16" font-weight="bold" fill="#1976d2">Pemrograman Prosedural</text>
  
  <!-- Data -->
  <rect x="70" y="100" width="260" height="80" fill="#fff" stroke="#666" stroke-width="1"/>
  <text x="200" y="125" text-anchor="middle" font-size="14" font-weight="bold">Data</text>
  <text x="200" y="145" text-anchor="middle" font-size="12">nama[]</text>
  <text x="200" y="160" text-anchor="middle" font-size="12">nim[]</text>
  <text x="200" y="175" text-anchor="middle" font-size="12">ipk[]</text>
  
  <!-- Functions -->
  <rect x="70" y="200" width="260" height="130" fill="#fff" stroke="#666" stroke-width="1"/>
  <text x="200" y="225" text-anchor="middle" font-size="14" font-weight="bold">Functions</text>
  <text x="200" y="245" text-anchor="middle" font-size="12">tambahMahasiswa()</text>
  <text x="200" y="260" text-anchor="middle" font-size="12">hapusMahasiswa()</text>
  <text x="200" y="275" text-anchor="middle" font-size="12">tampilkanMahasiswa()</text>
  <text x="200" y="290" text-anchor="middle" font-size="12">hitungRataIPK()</text>
  <text x="200" y="305" text-anchor="middle" font-size="12">cariMahasiswa()</text>
  
  <!-- Arrow -->
  <path d="M 200 180 L 200 200" stroke="#999" stroke-width="2" marker-end="url(#arrowgray)" stroke-dasharray="5,5"/>
  
  <!-- OOP -->
  <rect x="450" y="50" width="300" height="300" fill="#f3e5f5" stroke="#7b1fa2" stroke-width="2"/>
  <text x="600" y="75" text-anchor="middle" font-size="16" font-weight="bold" fill="#7b1fa2">Pemrograman Berorientasi Objek</text>
  
  <!-- Class Mahasiswa -->
  <rect x="470" y="100" width="260" height="230" fill="#fff" stroke="#666" stroke-width="2"/>
  <text x="600" y="125" text-anchor="middle" font-size="14" font-weight="bold">Class Mahasiswa</text>
  <line x1="470" y1="135" x2="730" y2="135" stroke="#666" stroke-width="1"/>
  
  <!-- Attributes -->
  <text x="480" y="155" font-size="13" font-weight="bold">Attributes:</text>
  <text x="490" y="175" font-size="12">- nama</text>
  <text x="490" y="190" font-size="12">- nim</text>
  <text x="490" y="205" font-size="12">- jurusan</text>
  <text x="490" y="220" font-size="12">- ipk</text>
  
  <line x1="470" y1="235" x2="730" y2="235" stroke="#666" stroke-width="1"/>
  
  <!-- Methods -->
  <text x="480" y="255" font-size="13" font-weight="bold">Methods:</text>
  <text x="490" y="275" font-size="12">+ tampilkan()</text>
  <text x="490" y="290" font-size="12">+ hitungPredikat()</text>
  <text x="490" y="305" font-size="12">+ updateIPK()</text>
  <text x="490" y="320" font-size="12">+ getNama()</text>
  
  <!-- Arrow marker -->
  <defs>
    <marker id="arrowgray" markerWidth="10" markerHeight="10" refX="9" refY="3" orient="auto" markerUnits="strokeWidth">
      <path d="M0,0 L0,6 L9,3 z" fill="#999"/>
    </marker>
  </defs>
</svg>
